<svg width="19" height="15" viewBox="0 0 19 15" fill="none" xmlns="http://www.w3.org/2000/svg">
<path d="M18.3508 3.42568L16.257 10.0189C16.1874 10.2451 16.0473 10.443 15.8572 10.5839C15.6671 10.7247 15.4369 10.8011 15.2003 10.8019H7.12065C6.88946 10.8031 6.66323 10.7348 6.47132 10.6059C6.2794 10.4769 6.13064 10.2933 6.04433 10.0788L2.95274 1.8019H1.17299C0.970392 1.79454 0.778546 1.70888 0.63782 1.56295C0.497093 1.41701 0.418457 1.22218 0.418457 1.01945C0.418457 0.816718 0.497093 0.621888 0.63782 0.475955C0.778546 0.330021 0.970392 0.244362 1.17299 0.237L3.50124 0.237C3.66416 0.238967 3.82261 0.290537 3.95548 0.384837C4.08835 0.479138 4.18932 0.61169 4.24495 0.764831L7.43364 9.23493H14.8708L16.5338 3.95248H7.31588C7.21074 3.9563 7.1059 3.93889 7.00763 3.90129C6.90937 3.86369 6.81969 3.80667 6.74395 3.73364C6.66821 3.6606 6.60797 3.57305 6.56683 3.47622C6.52568 3.37938 6.50448 3.27524 6.50448 3.17003C6.50448 3.06482 6.52568 2.96068 6.56683 2.86385C6.60797 2.76701 6.66821 2.67946 6.74395 2.60643C6.81969 2.53339 6.90937 2.47637 7.00763 2.43877C7.1059 2.40117 7.21074 2.38376 7.31588 2.38758H17.6071C17.7303 2.38946 17.8513 2.4206 17.9601 2.47843C18.069 2.53626 18.1625 2.61912 18.233 2.72019C18.3091 2.81905 18.3596 2.93515 18.3802 3.0582C18.4007 3.18125 18.3906 3.30746 18.3508 3.42568ZM7.51214 11.839C7.21853 11.8394 6.93415 11.9417 6.70744 12.1282C6.48073 12.3148 6.3257 12.5742 6.26875 12.8622C6.21181 13.1503 6.25647 13.4492 6.39513 13.708C6.53379 13.9668 6.75787 14.1695 7.02922 14.2817C7.30057 14.3938 7.60241 14.4085 7.88333 14.3231C8.16425 14.2377 8.40689 14.0575 8.56992 13.8134C8.73296 13.5692 8.80631 13.276 8.77748 12.9838C8.74866 12.6916 8.61944 12.4185 8.41183 12.2108C8.172 11.9741 7.84909 11.8407 7.51214 11.839ZM14.5361 11.839C14.2425 11.8394 13.9581 11.9417 13.7314 12.1282C13.5047 12.3148 13.3497 12.5742 13.2927 12.8622C13.2358 13.1503 13.2805 13.4492 13.4191 13.708C13.5578 13.9668 13.7819 14.1695 14.0532 14.2817C14.3246 14.3938 14.6264 14.4085 14.9073 14.3231C15.1882 14.2377 15.4309 14.0575 15.5939 13.8134C15.7569 13.5692 15.8303 13.276 15.8015 12.9838C15.7726 12.6916 15.6434 12.4185 15.4358 12.2108C15.196 11.9741 14.8731 11.8407 14.5361 11.839Z" fill="#184363"/>
</svg>
