<svg width="13" height="14" viewBox="0 0 13 14" fill="none" xmlns="http://www.w3.org/2000/svg">
<g clip-path="url(#clip0_1_170)">
<path d="M11.7885 3.71909H0.991555C0.832446 3.71909 0.679855 3.65592 0.567348 3.54349C0.454842 3.43106 0.391636 3.27856 0.391636 3.11955C0.391636 2.96055 0.454842 2.80805 0.567348 2.69562C0.679855 2.58318 0.832446 2.52002 0.991555 2.52002H11.7885C11.9476 2.52002 12.1002 2.58318 12.2127 2.69562C12.3252 2.80805 12.3884 2.96055 12.3884 3.11955C12.3884 3.27856 12.3252 3.43106 12.2127 3.54349C12.1002 3.65592 11.9476 3.71909 11.7885 3.71909ZM7.79989 6.32633C7.79946 6.16746 7.73612 6.01522 7.62371 5.90287C7.51129 5.79053 7.35895 5.72723 7.19998 5.7268H0.988285C0.829177 5.7268 0.676585 5.78996 0.564079 5.9024C0.451572 6.01483 0.388367 6.16733 0.388367 6.32633C0.388367 6.48534 0.451572 6.63783 0.564079 6.75027C0.676585 6.8627 0.829177 6.92587 0.988285 6.92587H7.19998C7.35895 6.92544 7.51129 6.86213 7.62371 6.74979C7.73612 6.63745 7.79946 6.48521 7.79989 6.32633ZM9.62744 9.51841C9.62701 9.35953 9.56366 9.20729 9.45125 9.09495C9.33884 8.98261 9.1865 8.9193 9.02752 8.91887H0.991555C0.832446 8.91887 0.679855 8.98204 0.567348 9.09447C0.454842 9.20691 0.391636 9.3594 0.391636 9.51841C0.391636 9.67741 0.454842 9.82991 0.567348 9.94234C0.679855 10.0548 0.832446 10.1179 0.991555 10.1179H9.02916C9.18785 10.1171 9.33977 10.0536 9.45183 9.94129C9.56389 9.829 9.62701 9.677 9.62744 9.51841ZM11.8465 12.7105C11.8461 12.5516 11.7827 12.3994 11.6703 12.287C11.5579 12.1747 11.4055 12.1114 11.2466 12.1109H1.03651C0.877399 12.1109 0.724808 12.1741 0.612301 12.2865C0.499795 12.399 0.436589 12.5515 0.436589 12.7105C0.436589 12.8695 0.499795 13.022 0.612301 13.1344C0.724808 13.2469 0.877399 13.31 1.03651 13.31H11.2482C11.4072 13.3096 11.5595 13.2463 11.6719 13.1339C11.7843 13.0216 11.8477 12.8694 11.8481 12.7105H11.8465Z" fill="#184363"/>
</g>
<defs>
<clipPath id="clip0_1_170">
<rect width="12" height="10.79" fill="white" transform="translate(0.390015 2.52002)"/>
</clipPath>
</defs>
</svg>
