<svg width="6" height="8" viewBox="0 0 6 8" fill="none" xmlns="http://www.w3.org/2000/svg">
<path d="M5.22234 3.68784L1.66224 0.127804C1.5799 0.045398 1.46999 0 1.35278 0C1.23558 0 1.12566 0.045398 1.04332 0.127804L0.781145 0.389915C0.610545 0.560711 0.610545 0.838302 0.781145 1.00884L3.77065 3.99834L0.777828 6.99116C0.695487 7.07357 0.650024 7.18342 0.650024 7.30056C0.650024 7.41783 0.695487 7.52768 0.777828 7.61015L1.04 7.8722C1.12241 7.9546 1.23226 8 1.34947 8C1.46667 8 1.57659 7.9546 1.65893 7.8722L5.22234 4.30891C5.30488 4.22624 5.35021 4.11587 5.34995 3.99854C5.35021 3.88075 5.30488 3.77044 5.22234 3.68784Z" fill="white"/>
</svg>
