<svg width="18" height="18" viewBox="0 0 18 18" fill="none" xmlns="http://www.w3.org/2000/svg">
<path d="M8.31497 0.569312C6.32792 0.572643 4.4232 1.36347 3.01813 2.76854C1.61307 4.1736 0.82224 6.07832 0.818909 8.06537C0.820569 10.0541 1.61046 11.9611 3.01553 13.3685C4.42059 14.7759 6.32625 15.569 8.31497 15.574C10.0788 15.574 11.7039 14.9536 12.989 13.9268L16.1102 17.048C16.2684 17.1951 16.4773 17.2751 16.6932 17.2713C16.9091 17.2675 17.1151 17.1802 17.268 17.0278C17.4209 16.8753 17.5087 16.6695 17.5131 16.4536C17.5174 16.2378 17.438 16.0286 17.2913 15.8701L14.1701 12.7457C15.2361 11.4199 15.8173 9.76974 15.8173 8.06852C15.8173 3.93624 12.4473 0.569312 8.31497 0.569312ZM8.31497 2.2386C11.5465 2.2386 14.148 4.83703 14.148 8.06537C14.148 11.2937 11.5465 13.9079 8.31497 13.9079C5.08348 13.9079 2.48505 11.3032 2.48505 8.07167C2.48505 4.84018 5.08348 2.2386 8.31497 2.2386Z" fill="white"/>
</svg>
